# xmcd
#
# Track frame offsets:
#	150
#	12367
#	25070
#	36122
#	48260
#	61935
#	74022
#	87722
#	99332
#	111605
#	125012
#	138387
#	171865
#	185662
#	198360
#	210390
#	223997
#	238245
#	250790
#	262747
#
# Disc length: 3676 seconds
#
# Revision: 2
# Processed by: cddbd v1.5.2PL0 Copyright (c) Steve Scherf et al.
# Submitted via: audiograbber 1.83.01
#
DISCID=2e0e5a14
DTITLE=Various Artist - The Great Blues Classics
DYEAR=1994
DGENRE=Blues
TTITLE0=John Lee Hooker - I'm in the mood
TTITLE1=Muddy Waters - I'm your hoochie coochie man
TTITLE2=Lowell Fulson - Blue shadows
TTITLE3=Little Walter - My babe
TTITLE4=Etta James - At Last
TTITLE5=Howlin Wolf - How many more years
TTITLE6=Muddy Waters - I'm ready
TTITLE7=Sonny Boy Williamson - Don't start me talkin'
TTITLE8=Little Walter - Juke
TTITLE9=Little Milton - Who's cheating who
TTITLE10=Koko Taylor - Wang dang doodle
TTITLE11=Buddy Guy - Stone crazy
TTITLE12=Howlin Wolf - Smokestack lightnin'
TTITLE13=Sonny Boy Williamson - Keep it to your self
TTITLE14=Little Milton - We're gonna make it
TTITLE15=Lowell Fulson - Lovin' you
TTITLE16=Little Walter - Sad hours
TTITLE17=Etta James - Something's got a hold on me
TTITLE18=Memphis Slim - Mother Earth
TTITLE19=Muddy Waters - Manish boy live
EXTD=
EXTT0=
EXTT1=
EXTT2=
EXTT3=
EXTT4=
EXTT5=
EXTT6=
EXTT7=
EXTT8=
EXTT9=
EXTT10=
EXTT11=
EXTT12=
EXTT13=
EXTT14=
EXTT15=
EXTT16=
EXTT17=
EXTT18=
EXTT19=
PLAYORDER=
